Coordinates
version=1
nRows=11
nColumns=36
inDegrees=yes

Units are S.I. units (second, meters, Newtons, ...)
If the header above contains a line with 'inDegrees', this indicates whether rotational values are in degrees (yes) or radians (no).

endheader
time	pelvis_tilt	pelvis_list	pelvis_rotation	pelvis_tx	pelvis_ty	pelvis_tz	hip_flexion_r	hip_adduction_r	hip_rotation_r	knee_angle_r	knee_angle_r_beta	ankle_angle_r	subtalar_angle_r	mtp_angle_r	hip_flexion_l	hip_adduction_l	hip_rotation_l	knee_angle_l	knee_angle_l_beta	ankle_angle_l	subtalar_angle_l	mtp_angle_l	lumbar_extension	lumbar_bending	lumbar_rotation	arm_flex_r	arm_add_r	arm_rot_r	elbow_flex_r	pro_sup_r	arm_flex_l	arm_add_l	arm_rot_l	elbow_flex_l	pro_sup_l
      3.78333330	      1.11174124	      2.59767899	     -0.79982097	      0.53423657	      0.96906276	     -0.08563753	     -4.06813444	     -6.60806720	      2.74751639	      2.55575312	      0.04460631	      7.10519527	    -10.87807176	     -7.49999987	     -5.20286774	     -7.87200927	     -6.62840284	      1.85410991	      0.03236032	      6.30046181	     -3.30437461	     -7.49999987	     -0.21165427	      2.03107490	     -0.76799506	     -0.89912198	    -11.19352297	      6.68113361	     14.01599058	     66.86053205	     -8.32186280	     -9.52837522	     -7.54334778	     16.82515455	     57.01120569
      3.80000000	      1.12076593	      2.60967773	     -0.77375669	      0.53434490	      0.96923633	     -0.08561518	     -4.12240926	     -6.62147334	      2.61291766	      2.48941207	      0.04344844	      7.12014813	    -10.73780787	     -7.49999987	     -5.24159572	     -7.84367034	     -6.40603550	      1.82871595	      0.03191711	      6.19929544	     -3.57614852	     -7.49999987	     -0.19427168	      1.97183726	     -0.53974160	     -0.74352501	    -10.90318878	      5.68895565	     13.67969055	     65.22326076	     -7.76182320	     -9.05536172	     -9.23161607	     16.58353489	     58.28900173
      3.81666670	      1.23646543	      2.54852856	     -0.96078811	      0.53185344	      0.96818143	     -0.08334164	     -4.15934437	     -6.53457740	      2.69456135	      2.46604200	      0.04304055	      7.19543733	    -10.53833120	     -7.49999987	     -5.44207947	     -7.90147012	     -6.42503106	      1.72071731	      0.03003218	      6.07261861	     -3.94456278	     -7.49999987	     -0.62220586	      1.93140876	     -0.25543542	     -0.52135352	    -10.72580687	      5.51545400	     14.14506804	     64.99879393	     -7.39227726	     -8.77513415	     -9.94131878	     17.09575499	     58.51655776
      3.83333330	      1.18265120	      2.53132281	     -0.97893724	      0.53456377	      0.96682221	     -0.08546457	     -4.11108459	     -6.51854350	      2.66260838	      2.43074815	      0.04242456	      7.20820299	    -10.59398645	     -7.49999987	     -5.44315941	     -7.91951598	     -6.39611312	      1.67445663	      0.02922478	      6.12459555	     -3.92810474	     -7.49999987	     -0.50826213	      1.94893849	     -0.14911228	     -0.18421182	    -10.40344751	      5.54484332	     14.23276231	     65.03150730	     -7.11549331	     -8.52083202	     -9.95878971	     17.16117474	     58.52841151
      3.85000000	      0.95778437	      2.49214266	     -1.10977300	      0.53448062	      0.96618515	     -0.08549876	     -3.75603364	     -6.47793489	      3.15456853	      2.56721339	      0.04480633	      7.09440538	    -11.25594172	     -7.49999987	     -5.20710851	     -7.95925108	     -6.45354866	      1.74252203	      0.03041275	      6.39987555	     -3.86918202	     -7.49999987	     -0.38542577	      2.00909497	     -0.02445943	      0.50713599	     -9.97179742	      5.22421570	     13.30454981	     65.17531395	     -6.44315597	     -7.77433418	    -13.19199782	     16.77143540	     59.08587825
      3.86666670	      0.94572478	      2.48584666	     -1.12219042	      0.53502183	      0.96419147	     -0.08600206	     -3.70168492	     -6.49114003	      3.28719845	      2.65587766	      0.04635381	      7.23084441	    -11.32844446	     -7.49999987	     -5.19326848	     -7.94496736	     -6.34501117	      1.82884716	      0.03191940	      6.44190705	     -4.23733845	     -7.49999987	     -0.55208146	      1.98554289	     -0.24073566	      0.93614655	     -9.53090829	      2.73758957	     13.46961867	     72.91140172	     -6.28702782	     -6.89174451	    -19.05408057	     17.64379382	     66.81392105
      3.88333330	      0.79864997	      2.52779863	     -1.09458671	      0.53451063	      0.96058277	     -0.09109633	     -3.40175030	     -6.63498182	      3.23737146	      2.91018512	      0.05079231	      7.31252164	    -11.46691657	     -7.49999987	     -5.00297835	     -7.81302156	     -6.29883915	      1.94639109	      0.03397093	      6.68565193	     -4.40206061	     -7.49999987	     -0.54471567	      2.01366340	     -0.14012962	      1.61096207	     -9.43480914	      2.75278975	     13.87596951	     72.91342435	     -5.78586192	     -6.41635770	    -19.01465284	     17.87771327	     66.81916376
      3.90000000	      0.63760559	      2.54354238	     -1.11627301	      0.53003587	      0.96147342	     -0.08580852	     -2.82311223	     -6.63890401	      3.35003021	      3.44265215	      0.06008562	      7.49332755	    -11.79137387	     -7.49999987	     -4.67095275	     -7.79117344	     -6.21967416	      2.16521779	      0.03779018	      6.93179435	     -4.75273604	     -7.49999987	     -0.80136452	      1.83544297	     -0.07528423	      2.75886978	     -9.18555312	      2.80489650	     14.59210381	     72.93658877	     -5.01278412	     -6.22686475	    -18.96981752	     17.99158727	     66.83175010
      3.91666670	      0.30128608	      2.53116489	     -1.05685283	      0.52808966	      0.95986728	     -0.08342530	     -1.88149898	     -6.53916675	      3.73290871	      4.28553392	      0.07479668	      7.41265012	    -12.92244101	     -7.49999987	     -3.97603751	     -7.86190395	     -5.85511595	      2.64419812	      0.04614996	      6.95256987	     -5.65805145	     -7.49999987	     -1.06320304	      1.62549456	      0.24760771	      4.01844081	     -8.89343854	      3.51913344	     15.83858938	     71.34746297	     -3.25881501	     -6.22656959	    -18.01887944	     17.63571105	     65.89133773
      3.93333330	     -0.05525009	      2.60559590	     -0.99169484	      0.52553575	      0.95843000	     -0.08692648	     -0.67029020	     -6.57583092	      3.77060571	      5.47929703	      0.09563177	      7.54548380	    -13.67820394	     -7.49999987	     -3.06096755	     -7.84548532	     -5.59447111	      3.39442966	      0.05924397	      6.96963933	     -6.49442171	     -7.49999987	     -1.60506876	      1.42669987	      0.40404386	      5.91882828	     -8.82282279	      4.43844701	     17.22978762	     71.71135846	     -1.15654506	     -6.38029450	    -16.63782972	     17.57212156	     66.22430521
      3.95000000	     -0.32282044	      2.68068368	     -0.83786630	      0.52394128	      0.95384682	     -0.08523672	      0.63938017	     -6.55897840	      3.69730390	      7.00666486	      0.12228937	      7.95413603	    -14.33074413	     -7.49999987	     -1.97579095	     -7.91503612	     -5.44901490	      4.58473017	      0.08001864	      7.15642635	     -7.21973399	     -7.49999987	     -2.44285704	      1.22757893	      0.58562914	      8.30117019	     -8.72517644	      5.76872230	     18.41973518	     70.93289496	      1.31300662	     -6.87767355	    -14.51368266	     17.87973013	     65.61008363
